<?xml version="1.0" encoding="UTF-8"?>
<svg version="1.1" xmlns="http://www.w3.org/2000/svg" width="216" height="216">
<path d="M0 0 C3.33096586 2.04982514 6.47515934 4.34747132 9.08203125 7.28125 C9.08203125 7.94125 9.08203125 8.60125 9.08203125 9.28125 C11.72843674 7.76901829 14.08402199 6.27952828 16.39453125 4.28125 C21.16872869 0.72835889 25.69980168 -1.08100361 31.70703125 -0.65625 C38.854954 0.4982255 42.82069365 4.67422684 47.08203125 10.28125 C55.08203125 21.43276515 55.08203125 21.43276515 55.08203125 27.28125 C55.74203125 27.28125 56.40203125 27.28125 57.08203125 27.28125 C57.34628906 26.40210937 57.61054688 25.52296875 57.8828125 24.6171875 C61.01604724 15.9012837 67.92318049 4.45605305 76.58203125 0.28125 C81.86996373 -1.22958785 85.43512591 -1.43739961 90.51953125 0.78125 C91.36515625 1.27625 92.21078125 1.77125 93.08203125 2.28125 C93.00984375 2.838125 92.93765625 3.395 92.86328125 3.96875 C92.77046875 4.731875 92.67765625 5.495 92.58203125 6.28125 C92.48921875 7.02375 92.39640625 7.76625 92.30078125 8.53125 C92.0251807 11.45305074 92.0251807 11.45305074 92.13671875 15.08203125 C92.16266393 19.33404653 91.5351391 23.30830433 90.70703125 27.46875 C90.58070313 28.15388672 90.454375 28.83902344 90.32421875 29.54492188 C89.77868536 32.37896785 89.18779115 35.0293825 88.06835938 37.6953125 C87.05712275 40.34655465 86.69129531 42.54481842 86.44921875 45.36328125 C86.36542969 46.29462891 86.28164062 47.22597656 86.1953125 48.18554688 C86.11667969 49.14525391 86.03804687 50.10496094 85.95703125 51.09375 C85.82748047 52.56231445 85.82748047 52.56231445 85.6953125 54.06054688 C85.48401946 56.46693978 85.27982362 58.87371612 85.08203125 61.28125 C86.01015625 61.879375 86.93828125 62.4775 87.89453125 63.09375 C90.32182553 64.75954019 92.09540299 66.18552944 94.08203125 68.28125 C95.28825029 69.22146877 96.49663639 70.15891312 97.70703125 71.09375 C100.15113173 73.19609066 101.02486467 74.13198171 102.20703125 77.21875 C102.01829171 81.84286868 100.37863251 85.33634811 97.83203125 89.15625 C96.08203125 90.28125 96.08203125 90.28125 92.83203125 90.40625 C88.42652327 91.43420186 88.11030257 92.20390671 85.64453125 95.78125 C83.35743077 98.99652354 81.99913062 100.90526418 78.01953125 101.59375 C73.49894381 101.23497322 71.65422778 99.9603974 68.08203125 97.28125 C64.09233655 96.84623458 64.09233655 96.84623458 61.83203125 99.21875 C58.29746588 101.86967403 55.46715582 102.49705337 51.08203125 102.28125 C46.34651849 100.60989255 43.4530705 97.94973389 40.08203125 94.28125 C39.75203125 95.085625 39.42203125 95.89 39.08203125 96.71875 C37.08203125 99.28125 37.08203125 99.28125 33.20703125 100.21875 C29.69069476 100.43205718 27.11254502 100.24217068 24.08203125 98.28125 C22.37049472 94.79513622 21.80338454 91.83981887 21.66796875 87.98046875 C21.62929687 87.00400391 21.590625 86.02753906 21.55078125 85.02148438 C21.51984375 84.01408203 21.48890625 83.00667969 21.45703125 81.96875 C21.41835937 80.94201172 21.3796875 79.91527344 21.33984375 78.85742188 C21.24588228 76.33220735 21.16021585 73.80699408 21.08203125 71.28125 C20.92645752 71.90692871 20.77088379 72.53260742 20.6105957 73.17724609 C19.89344116 76.009546 19.14448424 78.83246611 18.39453125 81.65625 C18.15025391 82.64109375 17.90597656 83.6259375 17.65429688 84.640625 C17.39970703 85.58164063 17.14511719 86.52265625 16.8828125 87.4921875 C16.54503784 88.79615479 16.54503784 88.79615479 16.20043945 90.12646484 C15.08203125 92.28125 15.08203125 92.28125 12.69213867 93.56494141 C8.60587834 94.68636015 4.88738858 94.72039097 0.76953125 93.71875 C-1.90322368 91.44195876 -2.17827183 88.60988614 -2.91796875 85.28125 C-3.40265625 85.92191406 -3.88734375 86.56257813 -4.38671875 87.22265625 C-17.01038288 103.51203824 -17.01038288 103.51203824 -26.91796875 105.28125 C-31.35921139 105.45264024 -34.81266852 104.83390012 -38.79296875 102.84375 C-42.89460095 97.89766412 -44.29731818 91.90034783 -43.85546875 85.53125 C-42.99543656 80.29707561 -40.74541478 76.80412169 -36.66796875 73.40625 C-32.96022833 71.8894471 -29.86589794 71.59256458 -25.91796875 72.28125 C-21.76442202 74.40417388 -20.55447121 76.77145111 -19.10546875 81.03125 C-18.69325918 82.44323858 -18.29186111 83.85863516 -17.91796875 85.28125 C-15.83868915 80.04792926 -14.27245161 74.99221606 -13.234375 69.44921875 C-12.94343017 67.97589748 -12.65241225 66.50259064 -12.36132812 65.02929688 C-11.92008977 62.75270252 -11.4817762 60.47557797 -11.0456543 58.19799805 C-9.47228051 50.03042809 -7.87675461 42.2246696 -4.66772461 34.50439453 C-3.37248685 30.66381001 -3.85923502 28.18533064 -4.91796875 24.28125 C-7.3833676 19.57392115 -7.3833676 19.57392115 -11.91796875 17.28125 C-12.43359375 18.250625 -12.94921875 19.22 -13.48046875 20.21875 C-15.91796875 23.28125 -15.91796875 23.28125 -19.48046875 24.34375 C-22.91796875 24.28125 -22.91796875 24.28125 -24.85546875 22.84375 C-25.20609375 22.328125 -25.55671875 21.8125 -25.91796875 21.28125 C-27.25775074 23.39771012 -27.25775074 23.39771012 -26.04296875 26.34375 C-25.20437797 29.13065465 -25.20437797 29.13065465 -23.91796875 30.28125 C-21.04490647 30.78220023 -21.04490647 30.78220023 -17.91796875 30.28125 C-15.51390491 27.90282423 -15.51390491 27.90282423 -13.91796875 25.28125 C-12.92796875 25.61125 -11.93796875 25.94125 -10.91796875 26.28125 C-12.02787334 35.06480525 -12.02787334 35.06480525 -15.91796875 38.28125 C-20.32697085 41.22058473 -23.63322893 41.9996597 -28.91796875 41.28125 C-34.52561589 38.31871944 -37.1499936 35.5467767 -39.16796875 29.59375 C-40.67774665 22.69739162 -39.63033577 16.34681516 -36.19921875 10.1953125 C-28.0142606 -2.03221645 -13.43860157 -6.77983503 0 0 Z M20.08203125 24.28125 C17.45022661 28.22895696 18.28113645 31.02105149 18.95703125 35.46875 C19.06144531 36.21833984 19.16585937 36.96792969 19.2734375 37.74023438 C19.53246405 39.58874204 19.80587091 41.43522432 20.08203125 43.28125 C20.74203125 43.28125 21.40203125 43.28125 22.08203125 43.28125 C22.78209074 41.20210336 23.46665369 39.11773414 24.14453125 37.03125 C24.52738281 35.87109375 24.91023438 34.7109375 25.3046875 33.515625 C26.03920682 30.45943406 26.31994098 29.10705441 25.08203125 26.28125 C24.42203125 25.62125 23.76203125 24.96125 23.08203125 24.28125 C22.09203125 24.28125 21.10203125 24.28125 20.08203125 24.28125 Z " fill="#C1C5C8" transform="translate(78.91796875,56.71875)"/>
<path d="M0 0 C1.2684375 0.7425 1.2684375 0.7425 2.5625 1.5 C2.4903125 2.056875 2.418125 2.61375 2.34375 3.1875 C2.2509375 3.950625 2.158125 4.71375 2.0625 5.5 C1.9696875 6.2425 1.876875 6.985 1.78125 7.75 C1.50564945 10.67180074 1.50564945 10.67180074 1.6171875 14.30078125 C1.64313268 18.55279653 1.01560785 22.52705433 0.1875 26.6875 C-0.00199219 27.71520508 -0.00199219 27.71520508 -0.1953125 28.76367188 C-0.74084589 31.59771785 -1.3317401 34.2481325 -2.45117188 36.9140625 C-3.4624085 39.56530465 -3.82823594 41.76356842 -4.0703125 44.58203125 C-4.15410156 45.51337891 -4.23789063 46.44472656 -4.32421875 47.40429688 C-4.40285156 48.36400391 -4.48148438 49.32371094 -4.5625 50.3125 C-4.64886719 51.29154297 -4.73523438 52.27058594 -4.82421875 53.27929688 C-5.03551179 55.68568978 -5.23970763 58.09246612 -5.4375 60.5 C-4.509375 61.098125 -3.58125 61.69625 -2.625 62.3125 C-0.19770572 63.97829019 1.57587174 65.40427944 3.5625 67.5 C4.76871904 68.44021877 5.97710514 69.37766312 7.1875 70.3125 C9.63160048 72.41484066 10.50533342 73.35073171 11.6875 76.4375 C11.49876046 81.06161868 9.85910126 84.55509811 7.3125 88.375 C5.5625 89.5 5.5625 89.5 2.3125 89.625 C-2.09300798 90.65295186 -2.40922868 91.42265671 -4.875 95 C-7.16210048 98.21527354 -8.52040063 100.12401418 -12.5 100.8125 C-17.02058744 100.45372322 -18.86530347 99.1791474 -22.4375 96.5 C-26.4271947 96.06498458 -26.4271947 96.06498458 -28.6875 98.4375 C-32.22206537 101.08842403 -35.05237543 101.71580337 -39.4375 101.5 C-44.17301276 99.82864255 -47.06646075 97.16848389 -50.4375 93.5 C-50.7675 94.304375 -51.0975 95.10875 -51.4375 95.9375 C-53.66001391 98.78509595 -54.10901067 98.94516035 -57.5 99.4375 C-58.799375 99.458125 -60.09875 99.47875 -61.4375 99.5 C-62.0975 98.84 -62.7575 98.18 -63.4375 97.5 C-58.9825 97.005 -58.9825 97.005 -54.4375 96.5 C-54.169375 95.819375 -53.90125 95.13875 -53.625 94.4375 C-52.84682892 92.51255048 -52.02499247 90.60455683 -51.15625 88.71875 C-48.55853 82.67223685 -46.73326753 76.32987695 -44.75 70.0625 C-44.33039579 68.74534147 -43.9104766 67.42828324 -43.49023438 66.11132812 C-42.46956018 62.9085229 -41.45208462 59.70473842 -40.4375 56.5 C-41.7575 56.5 -43.0775 56.5 -44.4375 56.5 C-44.7675 58.15 -45.0975 59.8 -45.4375 61.5 C-45.7675 61.5 -46.0975 61.5 -46.4375 61.5 C-45.91693301 57.15857238 -45.34829387 52.83351743 -44.68359375 48.51171875 C-41.66885028 30.89902514 -41.66885028 30.89902514 -44.4375 13.5 C-45.4275 12.84 -46.4175 12.18 -47.4375 11.5 C-46.1175 10.84 -44.7975 10.18 -43.4375 9.5 C-35.4375 20.92857143 -35.4375 20.92857143 -35.4375 26.5 C-34.7775 26.5 -34.1175 26.5 -33.4375 26.5 C-33.17324219 25.62085937 -32.90898437 24.74171875 -32.63671875 23.8359375 C-29.50348401 15.1200337 -22.59635076 3.67480305 -13.9375 -0.5 C-8.64956752 -2.01083785 -5.08440534 -2.21864961 0 0 Z " fill="#CDD0D2" transform="translate(169.4375,57.5)"/>
<path d="M0 0 C1.36125 1.175625 1.36125 1.175625 2.75 2.375 C6.07743246 5.20182082 6.07743246 5.20182082 10 7 C12.23470405 6.21690533 12.23470405 6.21690533 14 5 C16 8 16 8 15.796875 11.140625 C14.90189006 15.47515992 13.67746811 19.56608785 12.25 23.75 C11.98485596 24.53987305 11.71971191 25.32974609 11.4465332 26.14355469 C9.60225411 31.52935628 7.42684353 36.66008981 4.96875 41.796875 C3.32174159 45.5424909 3 48.96168388 3 53 C2.34 52.34 1.68 51.68 1 51 C0.5153125 51.64066406 0.030625 52.28132813 -0.46875 52.94140625 C-13.09241413 69.23078824 -13.09241413 69.23078824 -23 71 C-27.44124264 71.17139024 -30.89469977 70.55265012 -34.875 68.5625 C-38.9766322 63.61641412 -40.37934943 57.61909783 -39.9375 51.25 C-39.07746781 46.01582561 -36.82744603 42.52287169 -32.75 39.125 C-29.04225958 37.6081971 -25.94792919 37.31131458 -22 38 C-17.84645327 40.12292388 -16.63650246 42.49020111 -15.1875 46.75 C-14.77529043 48.16198858 -14.37389236 49.57738516 -14 51 C-11.9088086 45.7432873 -10.34991844 40.66812097 -9.31640625 35.09765625 C-9.02558021 33.61519717 -8.73455857 32.13277645 -8.44335938 30.65039062 C-8.00109173 28.35623442 -7.56230805 26.06148616 -7.12768555 23.76586914 C-5.53680366 15.41619843 -3.94509574 7.62140473 0 0 Z " fill="#ACAFB1" transform="translate(75,91)"/>
<path d="M0 0 C8.34615385 10.13461538 8.34615385 10.13461538 9 17 C9.66 17 10.32 17 11 17 C11.28875 16.05125 11.5775 15.1025 11.875 14.125 C13 11 13 11 15 9 C15.9590625 7.7315625 15.9590625 7.7315625 16.9375 6.4375 C19 4 19 4 22 3 C22 2.01 22 1.02 22 0 C22.66 0 23.32 0 24 0 C24.18896858 3.71706526 23.71632412 6.19345614 22.19921875 9.578125 C19.84252509 15.18267281 18.29403819 20.86232876 16.8125 26.75 C16.55275391 27.75160156 16.29300781 28.75320312 16.02539062 29.78515625 C13.73582053 38.71862095 12.76907685 46.9693159 12.6875 56.1875 C12.64399414 57.7972168 12.64399414 57.7972168 12.59960938 59.43945312 C12.5231367 69.16324797 14.86307249 76.76749692 20 85 C16.69226969 88.38008691 13.73029573 91.26831805 8.9375 92.0625 C3.1082449 91.96997214 0.32884019 90.2421767 -3.875 86.3125 C-4.926875 85.1678125 -4.926875 85.1678125 -6 84 C-6.33 84.804375 -6.66 85.60875 -7 86.4375 C-9.22251391 89.28509595 -9.67151067 89.44516035 -13.0625 89.9375 C-14.361875 89.958125 -15.66125 89.97875 -17 90 C-17.66 89.34 -18.32 88.68 -19 88 C-14.545 87.505 -14.545 87.505 -10 87 C-9.731875 86.319375 -9.46375 85.63875 -9.1875 84.9375 C-8.40932892 83.01255048 -7.58749247 81.10455683 -6.71875 79.21875 C-4.12103 73.17223685 -2.29576753 66.82987695 -0.3125 60.5625 C0.10710421 59.24534147 0.5270234 57.92828324 0.94726562 56.61132812 C1.96793982 53.4085229 2.98541538 50.20473842 4 47 C2.68 47 1.36 47 0 47 C-0.33 48.65 -0.66 50.3 -1 52 C-1.33 52 -1.66 52 -2 52 C-1.47943301 47.65857238 -0.91079387 43.33351743 -0.24609375 39.01171875 C2.76864972 21.39902514 2.76864972 21.39902514 0 4 C-0.99 3.34 -1.98 2.68 -3 2 C-2.01 1.34 -1.02 0.68 0 0 Z " fill="#D5E3ED" transform="translate(125,67)"/>
<path d="M0 0 C2.80092575 2.24634245 3.89899652 3.53550144 4.671875 7.08984375 C4.95473373 21.02063631 0.89494236 33.7073634 -3.09667969 46.92236328 C-3.82936337 49.41863639 -4.48232314 51.90085699 -5.0703125 54.43359375 C-6.04335609 58.16631978 -7.4807175 61.45890309 -9 65 C-9.42805968 66.4369624 -9.83075418 67.88166692 -10.2109375 69.33203125 C-10.50097656 70.43514648 -10.50097656 70.43514648 -10.796875 71.56054688 C-11.18652493 73.07833865 -11.56389243 74.59933007 -11.9296875 76.12304688 C-13.41259181 81.64003626 -13.41259181 81.64003626 -16.44140625 83.49609375 C-20.57333098 84.30986213 -24.30399044 84.49095013 -28.375 83.3125 C-30 82 -30 82 -30.75 79.5625 C-31.54421544 71.42179172 -28.48985499 64.45823279 -25.375 57.125 C-21.47932602 47.73528789 -18.45642223 38.1623814 -15.61474609 28.40673828 C-15.30102051 27.34181152 -14.98729492 26.27688477 -14.6640625 25.1796875 C-14.39029785 24.22819824 -14.1165332 23.27670898 -13.83447266 22.29638672 C-13 20 -13 20 -11 18 C-9.53329887 23.22512279 -8.77422598 27.5814234 -9 33 C-8.34 33 -7.68 33 -7 33 C-6.49933117 30.54040361 -6.00441026 28.07995428 -5.51953125 25.6171875 C-5.11404902 23.57453264 -4.68634677 21.53628491 -4.25 19.5 C-4.1675 18.675 -4.085 17.85 -4 17 C-4.66 16.34 -5.32 15.68 -6 15 C-7.32 15 -8.64 15 -10 15 C-8.68552225 11.43574301 -7.11594205 8.40275366 -5 5.25 C-4.2265625 4.08210938 -4.2265625 4.08210938 -3.4375 2.890625 C-2 1 -2 1 0 0 Z " fill="#CEDDE8" transform="translate(108,67)"/>
<path d="M0 0 C5.44633024 2.82790224 8.44728545 6.4917688 11.625 11.625 C12.24743825 17.22694421 8.91608706 21.37050585 6 26 C4.98250595 23.99202501 3.9925683 21.98345042 3.0703125 19.9296875 C2.75835937 19.25164062 2.44640625 18.57359375 2.125 17.875 C1.81820312 17.19179687 1.51140625 16.50859375 1.1953125 15.8046875 C-0.25020292 13.62224265 -1.6055861 12.97179142 -4 12 C-4.7734375 13.4540625 -4.7734375 13.4540625 -5.5625 14.9375 C-8 18 -8 18 -11.5625 19.0625 C-15 19 -15 19 -16.9375 17.5625 C-17.288125 17.046875 -17.63875 16.53125 -18 16 C-19.33978199 18.11646012 -19.33978199 18.11646012 -18.125 21.0625 C-17.28640922 23.84940465 -17.28640922 23.84940465 -16 25 C-13.12693772 25.50095023 -13.12693772 25.50095023 -10 25 C-7.59593616 22.62157423 -7.59593616 22.62157423 -6 20 C-5.01 20.33 -4.02 20.66 -3 21 C-4.10990459 29.78355525 -4.10990459 29.78355525 -8 33 C-12.4090021 35.93933473 -15.71526018 36.7184097 -21 36 C-26.60764714 33.03746944 -29.23202485 30.2655267 -31.25 24.3125 C-32.80645187 17.28884744 -31.64889606 11.18725854 -28 5 C-27.2265625 5.495 -27.2265625 5.495 -26.4375 6 C-22.97091514 7.42218866 -20.7282756 7.5055289 -17 7 C-14.95958795 5.62189912 -13.24833101 4.12138219 -11.48046875 2.41015625 C-8.18365785 -0.73007788 -4.3091917 -0.57884665 0 0 Z " fill="#CCD0D4" transform="translate(71,62)"/>
<path d="M0 0 C-0.33 2.64 -0.66 5.28 -1 8 C-1.66 8 -2.32 8 -3 8 C-3.23783203 9.03833984 -3.23783203 9.03833984 -3.48046875 10.09765625 C-4.87418953 15.94204337 -6.49396595 21.62586333 -8.4375 27.3125 C-10.9929172 34.79290309 -13.05479989 42.33873701 -15 50 C-15.39832031 49.10667969 -15.39832031 49.10667969 -15.8046875 48.1953125 C-17.0262422 45.95180354 -18.25875904 44.59699045 -20.125 42.875 C-21.7578125 41.3671875 -21.7578125 41.3671875 -23 40 C-23 39.34 -23 38.68 -23 38 C-23.804375 37.79375 -24.60875 37.5875 -25.4375 37.375 C-28 36 -28 36 -28.875 33.3125 C-29.12689994 26.63715152 -27.56452552 21.47570946 -24.9375 15.4296875 C-23.985087 12.96135048 -23.44470947 10.60340338 -23 8 C-23.66 8.66 -24.32 9.32 -25 10 C-25 10.99 -25 11.98 -25 13 C-25.66 13 -26.32 13 -27 13 C-28.38938077 14.96147874 -29.7260411 16.96166576 -31 19 C-32 16 -32 16 -30.8125 13.51171875 C-23.48422811 2.0928813 -14.17558713 -8.29790466 0 0 Z " fill="#C8CBCF" transform="translate(172,59)"/>
<path d="M0 0 C4.07781344 2.08421576 5.32564218 4.37802297 6.75 8.5625 C7.1780863 10.03840218 7.59589012 11.5173536 8 13 C8.33 13.99 8.66 14.98 9 16 C8.67 16.61875 8.34 17.2375 8 17.875 C6.69343175 20.65145753 7.35278608 22.05158102 8 25 C8.0625 27.625 8.0625 27.625 7 30 C1.22591862 33.09325788 -3.6557909 33.72251949 -10 32 C-14.13725778 29.93137111 -15.40581567 27.53640495 -16.875 23.3125 C-18.55590335 16.79059502 -18.36312155 11.62887727 -15.25 5.625 C-10.85165615 0.49359884 -6.6372037 -1.15780835 0 0 Z " fill="#D2D8DC" transform="translate(53,129)"/>
<path d="M0 0 C0.66 0.33 1.32 0.66 2 1 C2.13806322 6.60411156 1.71777854 11.69733858 0.625 17.1875 C0.49867188 17.87263672 0.37234375 18.55777344 0.2421875 19.26367188 C-0.29950788 22.07777939 -0.86422229 24.69333855 -2.02734375 27.3203125 C-3.59785876 31.6471129 -3.78833593 36.12341472 -4.1875 40.6875 C-4.32961914 42.13092773 -4.32961914 42.13092773 -4.47460938 43.60351562 C-5.16830513 48.44734453 -5.16830513 48.44734453 -4 53 C-5.134375 53.37125 -6.26875 53.7425 -7.4375 54.125 C-9.3814131 54.86637873 -9.3814131 54.86637873 -11 56 C-12.05749557 59.08369887 -12.05749557 59.08369887 -12 62 C-11.34 62.33 -10.68 62.66 -10 63 C-9.773125 62.360625 -9.54625 61.72125 -9.3125 61.0625 C-8 59 -8 59 -5.375 58.25 C-4.59125 58.1675 -3.8075 58.085 -3 58 C0.31861938 61.83797891 0.50544021 64.45362099 0.359375 69.390625 C-0.19070138 73.38465783 -1.61755871 76.74904333 -4 80 C-7 82 -7 82 -9 82 C-12.18401907 80.40799046 -12.75210812 78.26828825 -14 75 C-15.56629178 66.31420014 -15.23461643 57.80637436 -13.8125 49.125 C-13.6794043 48.30765381 -13.54630859 47.49030762 -13.40917969 46.64819336 C-10.65523894 30.55735502 -5.59403962 15.29897291 0 0 Z " fill="#DCE9F1" transform="translate(169,67)"/>
<path d="M0 0 C0.33 0.99 0.66 1.98 1 3 C1.66 3 2.32 3 3 3 C3 3.99 3 4.98 3 6 C7.29 5.01 11.58 4.02 16 3 C15.21625 4.98 14.4325 6.96 13.625 9 C10.18239544 17.75213983 10.18239544 17.75213983 9 27 C8.34 26.34 7.68 25.68 7 25 C6.50371094 25.65226562 6.00742188 26.30453125 5.49609375 26.9765625 C1.36039486 32.29725291 -2.71550834 36.8164441 -8 41 C-8.66 40.67 -9.32 40.34 -10 40 C-9.814375 39.443125 -9.62875 38.88625 -9.4375 38.3125 C-8.82344116 35.9863808 -8.82344116 35.9863808 -9.625 33.6875 C-10.06852191 30.50892634 -9.12729158 29.02232676 -7.84179688 26.17358398 C-5.79807876 20.89654733 -4.95583939 15.17970145 -3.80664062 9.65429688 C-3.60103516 8.69974609 -3.39542969 7.74519531 -3.18359375 6.76171875 C-3.00368896 5.89506592 -2.82378418 5.02841309 -2.63842773 4.13549805 C-2 2 -2 2 0 0 Z " fill="#B9BBBE" transform="translate(69,117)"/>
<path d="M0 0 C2.66666667 1.33333333 5.33333333 2.66666667 8 4 C5.25 8.875 5.25 8.875 3 10 C3 10.66 3 11.32 3 12 C3.66 12.66 4.32 13.32 5 14 C6.38442 15.96498322 7.71203834 17.97048465 9 20 C9.598125 20.928125 10.19625 21.85625 10.8125 22.8125 C12.41700044 27.11931696 11.81991932 30.5546543 11 35 C7.625 35.625 7.625 35.625 4 36 C3.34 35.34 2.68 34.68 2 34 C2 35.32 2 36.64 2 38 C-1.6208201 39.01382963 -5.27811418 39.49897691 -9 40 C-9.2164948 34.71091175 -8.48123974 30.1481794 -7.03125 25.09765625 C-6.8314856 24.3750914 -6.63172119 23.65252655 -6.42590332 22.9080658 C-5.79231578 20.62377609 -5.14639374 18.343195 -4.5 16.0625 C-4.0655831 14.50478662 -3.63198121 12.9468457 -3.19921875 11.38867188 C-2.1422161 7.58975255 -1.07414503 3.79410624 0 0 Z " fill="#A9ACAF" transform="translate(112,84)"/>
<path d="M0 0 C5.44633024 2.82790224 8.44728545 6.4917688 11.625 11.625 C12.24743825 17.22694421 8.91608706 21.37050585 6 26 C4.98250595 23.99202501 3.9925683 21.98345042 3.0703125 19.9296875 C2.75835937 19.25164062 2.44640625 18.57359375 2.125 17.875 C1.81820312 17.19179687 1.51140625 16.50859375 1.1953125 15.8046875 C-0.25020292 13.62224265 -1.6055861 12.97179142 -4 12 C-4.7734375 13.4540625 -4.7734375 13.4540625 -5.5625 14.9375 C-8 18 -8 18 -11.5 19.125 C-15 19 -15 19 -17.4375 17.375 C-19.30694503 14.53344356 -19.38480142 13.34327466 -19 10 C-17.609375 7.83203125 -17.609375 7.83203125 -15.75 5.8125 C-15.14671875 5.13832031 -14.5434375 4.46414062 -13.921875 3.76953125 C-9.77069139 -0.05259512 -5.56033616 -0.86947342 0 0 Z " fill="#D9E6EF" transform="translate(71,62)"/>
<path d="M0 0 C8.34615385 10.13461538 8.34615385 10.13461538 9 17 C9.66 17 10.32 17 11 17 C11.28875 16.05125 11.5775 15.1025 11.875 14.125 C13 11 13 11 15 9 C15.639375 8.154375 16.27875 7.30875 16.9375 6.4375 C19 4 19 4 22 3 C22 2.01 22 1.02 22 0 C22.66 0 23.32 0 24 0 C24 1.65 24 3.3 24 5 C23.01 5.33 22.02 5.66 21 6 C19.94454822 8.14149066 19.94454822 8.14149066 19 11 C18.43054029 12.35263917 17.85148101 13.70125624 17.265625 15.046875 C12.74770101 25.56811398 8.66657211 36.15305752 5 47 C3.35 47 1.7 47 0 47 C-0.495 49.475 -0.495 49.475 -1 52 C-1.33 52 -1.66 52 -2 52 C-1.47943301 47.65857238 -0.91079387 43.33351743 -0.24609375 39.01171875 C2.76864972 21.39902514 2.76864972 21.39902514 0 4 C-0.99 3.34 -1.98 2.68 -3 2 C-2.01 1.34 -1.02 0.68 0 0 Z " fill="#CED1D4" transform="translate(125,67)"/>
<path d="M0 0 C2.9375 2.125 2.9375 2.125 4.4140625 3.51171875 C6.00328938 5.05223964 6.00328938 5.05223964 7.8984375 6.45703125 C10.93157679 8.80307164 12.73283921 10.30241349 14.125 13.9375 C13.93626046 18.56161868 12.29660126 22.05509811 9.75 25.875 C8 27 8 27 4.75 27.125 C0.34449202 28.15295186 0.02827132 28.92265671 -2.4375 32.5 C-5.43933355 36.75542092 -5.43933355 36.75542092 -8.11328125 37.921875 C-11.27177261 38.40690841 -13.36293849 38.45788796 -16 36.5625 C-16.33 36.046875 -16.66 35.53125 -17 35 C-14.11604263 33.55802132 -11.17569521 33.41166419 -8 33 C-8.66 32.34 -9.32 31.68 -10 31 C-10 30.01 -10 29.02 -10 28 C-8.9275 28 -7.855 28 -6.75 28 C-3.10919422 27.39266353 -3.10919422 27.39266353 -1.64453125 25.50390625 C1.26282855 20.28745203 1.89869104 14.88329132 1 9 C0.34 8.01 -0.32 7.02 -1 6 C-3.43717258 6.27034634 -3.43717258 6.27034634 -6 7 C-6.99 8.485 -6.99 8.485 -8 10 C-8.99 9.67 -9.98 9.34 -11 9 C-10.51780822 3.57534247 -10.51780822 3.57534247 -8.3125 1.125 C-5.19629473 -0.39099175 -3.43569088 -0.54971054 0 0 Z " fill="#C7CED3" transform="translate(167,120)"/>
<path d="M0 0 C2.875 1.4375 2.875 1.4375 5 4 C5.9745282 6.96440255 6.55824735 9.91432477 7 13 C1.84 17.8 1.84 17.8 -1.625 18.625 C-4.99708519 17.73760916 -6.09667207 15.81974508 -8 13 C-8.66 14.98 -9.32 16.96 -10 19 C-10.5775 18.835 -11.155 18.67 -11.75 18.5 C-14.26664369 17.85537969 -14.26664369 17.85537969 -18 18 C-17.73118823 11.95173516 -17.08176177 7.7620554 -13 3 C-8.98921461 -0.34232116 -5.03817719 -0.87709158 0 0 Z " fill="#B6BBC0" transform="translate(53,129)"/>
<path d="M0 0 C0 0.66 0 1.32 0 2 C1.65 2.33 3.3 2.66 5 3 C5.47970123 4.74985354 5.95873924 6.49988891 6.4375 8.25 C6.70433594 9.22453125 6.97117188 10.1990625 7.24609375 11.203125 C7.69667615 12.87471567 8.13190774 14.55073891 8.53515625 16.234375 C8.9587969 18.08822428 8.9587969 18.08822428 10 20 C8.56274129 20.16873478 7.12518162 20.33490737 5.6875 20.5 C4.88699219 20.5928125 4.08648437 20.685625 3.26171875 20.78125 C1 21 1 21 -2 21 C-7.55220448 16.36895672 -10.31888173 10.9166009 -12 4 C-10.02 3.67 -8.04 3.34 -6 3 C-6 2.34 -6 1.68 -6 1 C-4 0 -4 0 0 0 Z " fill="#BBC0C5" transform="translate(150,134)"/>
<path d="M0 0 C10.38454288 12.60980207 10.38454288 12.60980207 9.71875 20.2109375 C8.95381628 24.24346852 7.70033673 27.89283998 6.1875 31.6875 C5.64535187 33.08654974 5.10500449 34.48629856 4.56640625 35.88671875 C4.16832764 36.91998291 4.16832764 36.91998291 3.76220703 37.97412109 C2.02304684 42.59665514 0.51335272 47.29970451 -1 52 C-1.33 52 -1.66 52 -2 52 C-1.47943301 47.65857238 -0.91079387 43.33351743 -0.24609375 39.01171875 C2.76864972 21.39902514 2.76864972 21.39902514 0 4 C-0.99 3.34 -1.98 2.68 -3 2 C-2.01 1.34 -1.02 0.68 0 0 Z " fill="#D1E1EB" transform="translate(125,67)"/>
<path d="M0 0 C2.66666667 1.33333333 5.33333333 2.66666667 8 4 C5.25 8.875 5.25 8.875 3 10 C3 10.66 3 11.32 3 12 C3.66 12.66 4.32 13.32 5 14 C12 23.93548387 12 23.93548387 12 28 C9.50638429 26.79618552 7.31856917 25.54571278 5 24 C5 23.34 5 22.68 5 22 C3.68 22.33 2.36 22.66 1 23 C0.67 22.34 0.34 21.68 0 21 C-2.52733235 20.34444881 -2.52733235 20.34444881 -5 20 C-3.33333333 13.33333333 -1.66666667 6.66666667 0 0 Z " fill="#B4B7BA" transform="translate(112,84)"/>
<path d="M0 0 C7.43328336 4.21889055 7.43328336 4.21889055 8.875 8.75 C9.05998293 13.5595561 7.32164639 16.95144809 4.75 20.9375 C1.93628671 22.64582592 -0.80030773 22.18111466 -4 22 C-3.7834375 21.40574219 -3.566875 20.81148437 -3.34375 20.19921875 C-1.37451049 14.33708447 -0.7322476 9.33024867 -0.9921875 3.15234375 C-0.99605469 2.08693359 -0.99605469 2.08693359 -1 1 C-0.67 0.67 -0.34 0.34 0 0 Z " fill="#D4E3ED" transform="translate(172,125)"/>
<path d="M0 0 C1.984375 1.484375 1.984375 1.484375 4 4 C4.2906124 6.89449949 4.38186045 9.37949935 4.25 12.25 C4.23195313 12.99507812 4.21390625 13.74015625 4.1953125 14.5078125 C4.14835649 16.33909701 4.07661652 18.16971649 4 20 C3.67 20 3.34 20 3 20 C2.67 17.03 2.34 14.06 2 11 C1.01 12.98 0.02 14.96 -1 17 C-1.556875 16.855625 -2.11375 16.71125 -2.6875 16.5625 C-5.11384195 15.97230872 -7.54906345 15.476571 -10 15 C-8.68552225 11.43574301 -7.11594205 8.40275366 -5 5.25 C-4.2265625 4.08210938 -4.2265625 4.08210938 -3.4375 2.890625 C-2 1 -2 1 0 0 Z " fill="#D6E5EF" transform="translate(108,67)"/>
<path d="M0 0 C0.8353125 1.2375 0.8353125 1.2375 1.6875 2.5 C3.73498204 5.16690044 3.73498204 5.16690044 6.4375 5.625 C10.02541342 4.74989917 11.61275331 2.72828193 14 0 C14.99 0.66 15.98 1.32 17 2 C15.62763405 7.18449361 12.37507325 10.14957349 8 13 C5.3125 13.625 5.3125 13.625 3 13 C0.3678496 11.0258872 -0.78708789 9.60832032 -1.875 6.5 C-2.01570001 3.68599981 -1.48400777 2.35695352 0 0 Z " fill="#DDEAF2" transform="translate(45,141)"/>
<path d="M0 0 C0.66 0.33 1.32 0.66 2 1 C2.13806322 6.60411156 1.71777854 11.69733858 0.625 17.1875 C0.49867188 17.87263672 0.37234375 18.55777344 0.2421875 19.26367188 C-0.48423346 23.03742878 -1.43225894 26.48962329 -3 30 C-3.66 30 -4.32 30 -5 30 C-7.4239536 22.09395292 -6.67953564 16.95518954 -3.625 9.375 C-3.28210938 8.46621094 -2.93921875 7.55742188 -2.5859375 6.62109375 C-1.74594904 4.40445754 -0.88419693 2.19928779 0 0 Z " fill="#D5E3EC" transform="translate(169,67)"/>
<path d="M0 0 C2.475 0.99 2.475 0.99 5 2 C5 2.66 5 3.32 5 4 C5.99 4.33 6.98 4.66 8 5 C8.66 4.67 9.32 4.34 10 4 C8.67171574 7.91638453 7.05991233 10.3483131 4.125 13.25 C3.44695312 13.93578125 2.76890625 14.6215625 2.0703125 15.328125 C-0.02805287 17.02265402 -1.36577827 17.59836978 -4 18 C-3.814375 17.278125 -3.62875 16.55625 -3.4375 15.8125 C-2.80300984 13.05740707 -2.80300984 13.05740707 -3.6875 10.6875 C-4.17316323 6.51079624 -2.05142907 3.54817989 0 0 Z " fill="#B5B7B8" transform="translate(63,140)"/>
<path d="M0 0 C0.99 0.33 1.98 0.66 3 1 C1.89009541 9.78355525 1.89009541 9.78355525 -2 13 C-6.40645044 15.93763363 -9.71823979 16.72379677 -15 16 C-18.5 14.1875 -18.5 14.1875 -21 12 C-21 11.01 -21 10.02 -21 9 C-20.319375 9.61875 -19.63875 10.2375 -18.9375 10.875 C-15.54118766 13.3319068 -13.03981179 14.04945605 -9 15 C-8.67 14.34 -8.34 13.68 -8 13 C-7.34 13.33 -6.68 13.66 -6 14 C-6 12.02 -6 10.04 -6 8 C-6.763125 7.896875 -7.52625 7.79375 -8.3125 7.6875 C-11.17059424 6.95635961 -12.15742885 6.23048087 -14 4 C-13.67 3.34 -13.34 2.68 -13 2 C-12.62875 2.495 -12.2575 2.99 -11.875 3.5 C-10.00672207 5.24308661 -10.00672207 5.24308661 -7.0625 5.5 C-3.78900051 5.28234672 -3.78900051 5.28234672 -1.625 2.5 C-1.08875 1.675 -0.5525 0.85 0 0 Z " fill="#B7BEC4" transform="translate(65,82)"/>
<path d="M0 0 C2.31 0.66 4.62 1.32 7 2 C6.34 7.28 5.68 12.56 5 18 C2.00022122 16.50011061 1.44411857 13.94840874 0 11 C-0.66 10.34 -1.32 9.68 -2 9 C-2.34490322 4.94738713 -2.30163882 3.45245824 0 0 Z " fill="#C9CBCE" transform="translate(120,93)"/>
<path d="M0 0 C0.33 0 0.66 0 1 0 C1.17015625 1.25554687 1.3403125 2.51109375 1.515625 3.8046875 C3.34921709 16.78939666 3.34921709 16.78939666 8 29 C5.609375 29.140625 5.609375 29.140625 3 29 C-1.03298038 23.81473951 -1.13768296 18.96105102 -1.125 12.5625 C-1.12757813 11.26441406 -1.13015625 9.96632812 -1.1328125 8.62890625 C-1.02191827 5.59888459 -0.71254666 2.93501362 0 0 Z " fill="#F1F7FA" transform="translate(135,121)"/>
<path d="M0 0 C2.875 2.1875 2.875 2.1875 5 5 C5.3125 7.8125 5.3125 7.8125 5 10 C3.125 9.6875 3.125 9.6875 1 9 C0.34 8.01 -0.32 7.02 -1 6 C-3.43717258 6.27034634 -3.43717258 6.27034634 -6 7 C-6.99 8.485 -6.99 8.485 -8 10 C-8.99 9.67 -9.98 9.34 -11 9 C-10.51780822 3.57534247 -10.51780822 3.57534247 -8.3125 1.125 C-5.21507874 -0.38185358 -3.40864082 -0.55651279 0 0 Z " fill="#D0D7DC" transform="translate(167,120)"/>
<path d="M0 0 C0.66 0 1.32 0 2 0 C2 1.65 2 3.3 2 5 C1.01 5.33 0.02 5.66 -1 6 C-2.10632264 8.24172853 -2.10632264 8.24172853 -3 11 C-3.87178778 13.10549957 -4.74687993 15.20963351 -5.625 17.3125 C-6.07101563 18.38113281 -6.51703125 19.44976562 -6.9765625 20.55078125 C-7.48316406 21.76314453 -7.48316406 21.76314453 -8 23 C-9.65 22.67 -11.3 22.34 -13 22 C-10.14434985 12.52167183 -10.14434985 12.52167183 -7 9 C-6.01 7.6696875 -6.01 7.6696875 -5 6.3125 C-3 4 -3 4 0 3 C0 2.01 0 1.02 0 0 Z " fill="#D0D5D8" transform="translate(147,67)"/>
<path d="M0 0 C1.9375 0.8125 1.9375 0.8125 4 2 C4.33 2.99 4.66 3.98 5 5 C5.78375 4.484375 6.5675 3.96875 7.375 3.4375 C8.674375 2.7259375 8.674375 2.7259375 10 2 C10.66 2.33 11.32 2.66 12 3 C11.45730469 3.43570313 10.91460937 3.87140625 10.35546875 4.3203125 C6.09840925 7.8640269 3.06370485 10.71175632 1 16 C-1.32472205 13.14693203 -2.7508258 10.45925163 -4 7 C-3.34 6.67 -2.68 6.34 -2 6 C-1.40929986 4.05396726 -1.40929986 4.05396726 -1 2 C-0.67 1.34 -0.34 0.68 0 0 Z " fill="#B3B8BC" transform="translate(83,61)"/>
<path d="M0 0 C1.32 0.33 2.64 0.66 4 1 C3.29587558 6.89084374 1.34799878 12.29104712 -0.5625 17.875 C-0.89185547 18.84953125 -1.22121094 19.8240625 -1.56054688 20.828125 C-2.36961988 23.22016694 -3.1828756 25.61069897 -4 28 C-4.33 28 -4.66 28 -5 28 C-4.30756029 22.18084324 -3.46181759 16.4054285 -2.5 10.625 C-2.30470703 9.41650391 -2.30470703 9.41650391 -2.10546875 8.18359375 C-1.11977209 2.23954417 -1.11977209 2.23954417 0 0 Z " fill="#DBE9F2" transform="translate(128,91)"/>
<path d="M0 0 C0.99 0.33 1.98 0.66 3 1 C3 1.99 3 2.98 3 4 C4.32 4.66 5.64 5.32 7 6 C6.34 7.32 5.68 8.64 5 10 C-1.4 10.49230769 -1.4 10.49230769 -4.4375 8 C-4.953125 7.34 -5.46875 6.68 -6 6 C-4.02 4.02 -2.04 2.04 0 0 Z " fill="#B4B9BD" transform="translate(49,60)"/>
<path d="M0 0 C3.3 0.66 6.6 1.32 10 2 C9.67 3.65 9.34 5.3 9 7 C5.3791799 8.01382963 1.72188582 8.49897691 -2 9 C-2 6.69 -2 4.38 -2 2 C-1.34 2 -0.68 2 0 2 C0 1.34 0 0.68 0 0 Z " fill="#B1B5B9" transform="translate(105,115)"/>
<path d="M0 0 C2.5 2.3125 2.5 2.3125 5 5 C5 7.83967231 4.59732819 10.23735711 4 13 C2.02 12.34 0.04 11.68 -2 11 C-3.14947895 7.44706507 -3.0868937 6.20023331 -1.5625 2.6875 C-1.046875 1.800625 -0.53125 0.91375 0 0 Z " fill="#B1B5B8" transform="translate(75,91)"/>
<path d="M0 0 C1.0209375 0.433125 1.0209375 0.433125 2.0625 0.875 C1.0725 2.36 1.0725 2.36 0.0625 3.875 C-0.9275 3.545 -1.9175 3.215 -2.9375 2.875 C-3.9275 4.36 -3.9275 4.36 -4.9375 5.875 C-5.5975 5.875 -6.2575 5.875 -6.9375 5.875 C-7.2675 6.865 -7.5975 7.855 -7.9375 8.875 C-8.5975 9.535 -9.2575 10.195 -9.9375 10.875 C-9.9375 11.865 -9.9375 12.855 -9.9375 13.875 C-10.5975 13.875 -11.2575 13.875 -11.9375 13.875 C-13.32688077 15.83647874 -14.6635411 17.83666576 -15.9375 19.875 C-16.9375 16.875 -16.9375 16.875 -15.75 14.38671875 C-6.34378491 -0.26994829 -6.34378491 -0.26994829 0 0 Z " fill="#BDC4CA" transform="translate(156.9375,58.125)"/>
<path d="M0 0 C0.80050781 0.22042969 1.60101563 0.44085938 2.42578125 0.66796875 C3.23402344 0.88066406 4.04226562 1.09335938 4.875 1.3125 C5.79732422 1.58126953 5.79732422 1.58126953 6.73828125 1.85546875 C6.73828125 3.52213542 6.73828125 5.18880208 6.73828125 6.85546875 C7.06828125 7.51546875 7.39828125 8.17546875 7.73828125 8.85546875 C6.13394316 8.37687634 4.52981709 7.89757317 2.92578125 7.41796875 C2.03246094 7.15113281 1.13914062 6.88429687 0.21875 6.609375 C-1.6164493 6.05159002 -3.44205601 5.462023 -5.26171875 4.85546875 C-5.26171875 2.85546875 -5.26171875 2.85546875 -4.0546875 1.1796875 C-2.26171875 -0.14453125 -2.26171875 -0.14453125 0 0 Z " fill="#C3C8CC" transform="translate(47.26171875,129.14453125)"/>
<path d="M0 0 C2.31 0.66 4.62 1.32 7 2 C7.625 3.8125 7.625 3.8125 8 6 C7.01 7.485 7.01 7.485 6 9 C2 9 2 9 -1 8 C-0.67 5.36 -0.34 2.72 0 0 Z " fill="#C6CBD0" transform="translate(36,139)"/>
<path d="M0 0 C1.32 0.33 2.64 0.66 4 1 C3.54803755 2.60597325 3.08817673 4.20972508 2.625 5.8125 C2.36976563 6.70582031 2.11453125 7.59914063 1.8515625 8.51953125 C1 11 1 11 -1 14 C-1.99 13.34 -2.98 12.68 -4 12 C-3.33501617 7.61110675 -1.81242323 4.0188515 0 0 Z " fill="#CACCCF" transform="translate(134,89)"/>
<path d="M0 0 C1.051875 1.1446875 1.051875 1.1446875 2.125 2.3125 C5.94065585 5.87930873 9.85778787 8.01111305 15 9 C15 9.66 15 10.32 15 11 C10.52265009 10.8049085 6.95527385 10.53734154 3 8.3125 C0.59632409 5.53324973 0.24689532 3.62113142 0 0 Z " fill="#DFEAF2" transform="translate(37,151)"/>
<path d="M0 0 C0 0.66 0 1.32 0 2 C-0.74765625 2.06058594 -1.4953125 2.12117188 -2.265625 2.18359375 C-3.25046875 2.26738281 -4.2353125 2.35117187 -5.25 2.4375 C-6.22453125 2.51871094 -7.1990625 2.59992187 -8.203125 2.68359375 C-10.56873483 2.95121162 -12.70640166 3.39615442 -15 4 C-15.66 4 -16.32 4 -17 4 C-17.33 4.66 -17.66 5.32 -18 6 C-18.99 6.33 -19.98 6.66 -21 7 C-21 6.01 -21 5.02 -21 4 C-13.81947541 0.51098155 -7.9587799 -0.54470737 0 0 Z " fill="#BAC2C8" transform="translate(72,54)"/>
<path d="M0 0 C3.35433109 0.94933899 6.69246505 1.89748835 10 3 C9.34 4.32 8.68 5.64 8 7 C5.6875 7.25 5.6875 7.25 3 7 C1.1875 5.1875 1.1875 5.1875 0 3 C0 2.01 0 1.02 0 0 Z " fill="#C1C7CB" transform="translate(46,140)"/>
<path d="M0 0 C0.66 0.33 1.32 0.66 2 1 C1.67 1.66 1.34 2.32 1 3 C1.78375 3.28875 2.5675 3.5775 3.375 3.875 C6 5 6 5 8 7 C6.68 8.32 5.36 9.64 4 11 C3.67 10.01 3.34 9.02 3 8 C-0.00847418 6.77479736 -0.00847418 6.77479736 -3 6 C-2.01 4.02 -1.02 2.04 0 0 Z " fill="#B2B7BA" transform="translate(39,133)"/>
<path d="M0 0 C0.99 0.33 1.98 0.66 3 1 C3.36263859 6.8022175 2.25684543 10.63999211 0 16 C-0.99 16 -1.98 16 -3 16 C-2.5359375 14.824375 -2.5359375 14.824375 -2.0625 13.625 C-0.73664193 9.10148422 -0.35188915 4.68568186 0 0 Z " fill="#C3C8CB" transform="translate(169,129)"/>
<path d="M0 0 C0.66 0.33 1.32 0.66 2 1 C1 2.9375 1 2.9375 -1 5 C-3.6778359 5.84798137 -6.19546156 6.17528365 -9 6 C-11 4.5625 -11 4.5625 -12 3 C-9.33698651 1.66849326 -6.81316889 1.58370856 -3.875 1.28125 C-1.91408066 1.08603452 -1.91408066 1.08603452 0 0 Z " fill="#CCDCE7" transform="translate(162,152)"/>
<path d="M0 0 C0.99 0 1.98 0 3 0 C1.81498784 3.55503647 0.69246306 5.37657446 -2 8 C-4.82188558 8.87729908 -6.98094198 8.95130552 -10 9 C-10.66 8.34 -11.32 7.68 -12 7 C-7.545 6.505 -7.545 6.505 -3 6 C-2.690625 5.195625 -2.38125 4.39125 -2.0625 3.5625 C-1 1 -1 1 0 0 Z " fill="#CED7DC" transform="translate(118,148)"/>
<path d="M0 0 C-0.99 1.98 -1.98 3.96 -3 6 C-5.91517292 4.92598892 -7.77810176 4.22189824 -10 2 C-8.71211992 1.46987262 -7.41953322 0.9511671 -6.125 0.4375 C-5.40570313 0.14746094 -4.68640625 -0.14257812 -3.9453125 -0.44140625 C-2 -1 -2 -1 0 0 Z " fill="#BCC0C3" transform="translate(85,121)"/>
<path d="M0 0 C3.2542015 2.83430453 4.5206753 4.68607774 5 9 C2.50638429 7.79618552 0.31856917 6.54571278 -2 5 C-1.34 3.35 -0.68 1.7 0 0 Z " fill="#B7BBBE" transform="translate(119,103)"/>
<path d="M0 0 C1.23593891 3.70781672 0.5678132 4.67510253 -0.9375 8.1875 C-1.31777344 9.08855469 -1.69804687 9.98960938 -2.08984375 10.91796875 C-2.54037109 11.94857422 -2.54037109 11.94857422 -3 13 C-3.99 12.67 -4.98 12.34 -6 12 C-4.02 8.04 -2.04 4.08 0 0 Z " fill="#F2F8FA" transform="translate(146,73)"/>
<path d="M0 0 C0.66 0.33 1.32 0.66 2 1 C1.34000585 3.79711806 0.54099721 6.48522531 -0.4375 9.1875 C-0.68371094 9.88230469 -0.92992187 10.57710937 -1.18359375 11.29296875 C-2 13 -2 13 -4 14 C-3.00956295 9.16371695 -2.04301154 4.52381127 0 0 Z " fill="#DFECF4" transform="translate(133,103)"/>
<path d="M0 0 C-0.99 0.33 -1.98 0.66 -3 1 C-3 1.66 -3 2.32 -3 3 C-4.98 3.33 -6.96 3.66 -9 4 C-9.33 3.01 -9.66 2.02 -10 1 C-3.71428571 -1.42857143 -3.71428571 -1.42857143 0 0 Z " fill="#CBD3D9" transform="translate(110,57)"/>
<path d="M0 0 C0.3403125 0.8353125 0.3403125 0.8353125 0.6875 1.6875 C2.35896766 4.63246684 4.55276352 6.68156544 7 9 C4.6875 9.3125 4.6875 9.3125 2 9 C0.125 6.75 0.125 6.75 -1 4 C-0.6875 1.6875 -0.6875 1.6875 0 0 Z " fill="#F3F9FB" transform="translate(136,141)"/>
<path d="M0 0 C1.0828125 0.37125 1.0828125 0.37125 2.1875 0.75 C1.1975 2.235 1.1975 2.235 0.1875 3.75 C-0.8025 3.42 -1.7925 3.09 -2.8125 2.75 C-4.7073204 3.72229848 -4.7073204 3.72229848 -6.5 5.1875 C-7.43392578 5.89712891 -7.43392578 5.89712891 -8.38671875 6.62109375 C-8.85722656 6.99363281 -9.32773438 7.36617188 -9.8125 7.75 C-8.03380954 3.22242429 -5.15359574 -0.4580974 0 0 Z " fill="#AEB5BC" transform="translate(156.8125,58.25)"/>
<path d="M0 0 C0.33 0.66 0.66 1.32 1 2 C1.66 2 2.32 2 3 2 C2.50639991 6.27786748 1.95216435 9.09567131 0 13 C0 8.71 0 4.42 0 0 Z " fill="#E4EFF4" transform="translate(98,98)"/>
<path d="M0 0 C0.99 0.33 1.98 0.66 3 1 C1.44191344 10.59453303 1.44191344 10.59453303 -3 14 C-3.66 13.67 -4.32 13.34 -5 13 C-4.175 12.154375 -3.35 11.30875 -2.5 10.4375 C-0.15985411 7.67546865 0.00003886 6.99951809 0.3125 3.125 C0.209375 2.09375 0.10625 1.0625 0 0 Z " fill="#A4ABB0" transform="translate(65,82)"/>
<path d="M0 0 C1.32 0.66 2.64 1.32 4 2 C3.34 3.65 2.68 5.3 2 7 C1.34 7 0.68 7 0 7 C0 6.01 0 5.02 0 4 C-0.66 3.67 -1.32 3.34 -2 3 C-1.34 2.01 -0.68 1.02 0 0 Z " fill="#D1E0EA" transform="translate(58,141)"/>
<path d="M0 0 C0.66 0.33 1.32 0.66 2 1 C1.67 1.66 1.34 2.32 1 3 C1.99 3.33 2.98 3.66 4 4 C1.35261084 5.4606285 0.10551666 6 -3 6 C-2.01 4.02 -1.02 2.04 0 0 Z " fill="#A8AEB3" transform="translate(39,133)"/>
<path d="M0 0 C0.33 0 0.66 0 1 0 C1.33 2.64 1.66 5.28 2 8 C0.35 7.67 -1.3 7.34 -3 7 C-1.125 1.125 -1.125 1.125 0 0 Z " fill="#C5CACD" transform="translate(153,129)"/>
<path d="M0 0 C1.32 0.33 2.64 0.66 4 1 C3.34 2.98 2.68 4.96 2 7 C1.34 6.34 0.68 5.68 0 5 C-0.99 5.495 -0.99 5.495 -2 6 C-1.34 4.02 -0.68 2.04 0 0 Z " fill="#C3C5C7" transform="translate(134,89)"/>
<path d="M0 0 C2.475 0.495 2.475 0.495 5 1 C5.33 1.99 5.66 2.98 6 4 C4.125 4.625 4.125 4.625 2 5 C1.34 4.34 0.68 3.68 0 3 C0 2.01 0 1.02 0 0 Z " fill="#C3C8CC" transform="translate(157,148)"/>
<path d="M0 0 C0.66 0 1.32 0 2 0 C2.99 2.64 3.98 5.28 5 8 C1.125 6.125 1.125 6.125 0 5 C-0.04063832 3.33382885 -0.042721 1.66611905 0 0 Z " fill="#D1E1EB" transform="translate(137,140)"/>
<path d="M0 0 C0.66 0.33 1.32 0.66 2 1 C2.625 3.5625 2.625 3.5625 3 6 C1.35 5.67 -0.3 5.34 -2 5 C-1.125 1.125 -1.125 1.125 0 0 Z " fill="#F2F8FB" transform="translate(157,132)"/>
<path d="M0 0 C0.99 0 1.98 0 3 0 C2.67 1.65 2.34 3.3 2 5 C0.68 5.33 -0.64 5.66 -2 6 C-1.34 4.02 -0.68 2.04 0 0 Z " fill="#DBE9F2" transform="translate(140,86)"/>
<path d="M0 0 C1.98 0.99 3.96 1.98 6 3 C6 3.33 6 3.66 6 4 C5.236875 3.979375 4.47375 3.95875 3.6875 3.9375 C0.89814214 3.87057159 0.89814214 3.87057159 -2 5 C-1.34 3.35 -0.68 1.7 0 0 Z " fill="#C0C8CB" transform="translate(43,67)"/>
<path d="M0 0 C3.875 4.75 3.875 4.75 5 7 C1.62496331 5.8141763 -0.64722731 4.72426311 -3 2 C-2.01 1.34 -1.02 0.68 0 0 Z " fill="#D1D9DF" transform="translate(125,67)"/>
</svg>
